<?xml version="1.0" standalone="no"?>
<!DOCTYPE svg PUBLIC "-//W3C//DTD SVG 20010904//EN"
 "http://www.w3.org/TR/2001/REC-SVG-20010904/DTD/svg10.dtd">
<svg version="1.0" xmlns="http://www.w3.org/2000/svg"
 width="738.000000pt" height="738.000000pt" viewBox="0 0 738.000000 738.000000"
 preserveAspectRatio="xMidYMid meet">
<metadata>
Created by potrace 1.11, written by Peter Selinger 2001-2013
</metadata>
<g transform="translate(0.000000,738.000000) scale(0.100000,-0.100000)"
fill="#000000" stroke="none">
<path d="M3538 7375 c-2 -1 -39 -5 -83 -9 -190 -14 -390 -56 -605 -126 -48
-16 -155 -58 -212 -84 -31 -14 -59 -26 -62 -26 -3 0 -56 -28 -118 -62 -644
-351 -1103 -930 -1289 -1624 -31 -117 -33 -127 -43 -185 -3 -19 -8 -45 -10
-59 -5 -30 -15 -101 -26 -195 -8 -75 -6 -387 4 -445 3 -19 8 -51 11 -70 3 -19
7 -42 10 -50 2 -8 6 -26 9 -40 38 -217 190 -641 359 -1001 58 -123 209 -426
252 -504 18 -33 46 -85 62 -115 46 -85 127 -229 162 -288 17 -29 31 -54 31
-56 0 -7 313 -525 390 -646 330 -521 790 -1197 1079 -1588 122 -165 155 -192
231 -192 52 0 112 31 141 72 13 18 26 35 29 38 10 9 246 338 392 545 202 289
619 915 753 1132 6 9 40 65 77 124 308 495 675 1161 818 1484 12 28 36 79 52
115 167 365 307 806 336 1060 9 81 9 351 0 445 -13 131 -45 300 -82 437 -194
710 -688 1310 -1354 1643 -136 68 -346 150 -437 171 -5 1 -47 11 -92 23 -90
23 -207 46 -293 56 -30 4 -64 9 -75 12 -21 4 -412 12 -417 8z m392 -359 c789
-96 1435 -548 1784 -1246 142 -285 218 -579 232 -900 10 -217 -24 -421 -116
-700 -105 -318 -310 -776 -510 -1140 -26 -47 -66 -121 -90 -165 -179 -334
-582 -989 -913 -1485 -185 -277 -571 -831 -615 -882 -13 -15 -24 -2 -126 140
-458 642 -944 1387 -1256 1927 -515 891 -808 1570 -876 2030 -12 82 -13 364
-1 420 3 11 8 47 13 80 4 33 8 62 9 65 1 3 5 25 9 50 46 257 179 577 334 809
266 396 641 694 1087 863 111 42 278 90 350 101 17 3 41 8 55 11 38 8 87 15
165 22 39 4 71 8 73 9 6 5 341 -3 392 -9z"/>
<path d="M3538 6555 c-2 -1 -28 -5 -58 -9 -64 -7 -98 -12 -160 -26 -25 -6 -54
-12 -65 -14 -144 -27 -456 -170 -590 -270 -58 -44 -133 -103 -159 -126 -143
-126 -294 -314 -380 -474 -12 -23 -27 -50 -33 -61 -6 -11 -18 -36 -26 -55 -9
-19 -27 -61 -41 -92 -14 -32 -23 -58 -20 -58 3 0 0 -9 -6 -19 -11 -22 -58
-190 -66 -236 -2 -16 -7 -43 -10 -60 -29 -178 -25 -446 12 -632 2 -13 6 -35 9
-50 14 -72 81 -267 121 -350 24 -51 44 -97 44 -103 0 -5 5 -10 10 -10 6 0 10
-4 10 -10 0 -19 143 -230 190 -281 67 -72 154 -160 186 -189 245 -219 599
-386 904 -426 25 -3 61 -9 80 -13 40 -9 391 -6 430 3 14 3 45 9 69 12 35 5
160 35 236 57 254 74 544 251 739 452 109 112 286 349 286 382 0 6 6 16 14 22
8 7 17 24 21 39 4 15 12 34 20 42 7 8 20 37 30 65 9 27 20 54 24 60 6 8 24 60
36 105 1 3 9 30 18 60 21 67 46 193 55 275 11 102 5 460 -8 460 -1 0 -3 16 -5
35 -5 41 -8 54 -30 146 -21 87 -61 204 -92 268 -12 28 -23 53 -23 57 0 14
-110 201 -157 268 -99 140 -237 284 -363 381 -25 19 -46 38 -48 43 -2 4 -8 7
-13 7 -9 0 -65 36 -79 50 -36 36 -367 187 -450 205 -3 1 -24 7 -47 13 -23 7
-66 17 -95 22 -29 6 -64 13 -78 16 -14 3 -38 7 -55 10 -34 5 -382 13 -387 9z
m328 -478 c12 -3 39 -8 60 -11 62 -10 168 -38 180 -47 6 -5 19 -10 30 -12 47
-9 184 -75 254 -122 29 -19 56 -35 61 -35 5 0 9 -3 9 -7 0 -5 17 -19 38 -33
46 -31 188 -171 228 -225 16 -22 31 -42 34 -45 16 -14 94 -148 121 -207 44
-96 88 -224 96 -277 2 -17 6 -37 9 -44 26 -77 26 -362 -1 -482 -3 -14 -7 -36
-10 -50 -3 -14 -7 -35 -9 -48 -3 -13 -15 -51 -27 -85 -134 -383 -432 -686
-802 -816 -48 -17 -98 -33 -110 -35 -47 -10 -69 -15 -85 -20 -64 -19 -332 -27
-427 -12 -44 7 -152 29 -195 40 -105 27 -355 151 -406 200 -6 6 -26 22 -45 36
-48 36 -168 156 -214 216 -41 52 -47 61 -87 124 -41 64 -118 228 -118 252 0 8
-4 18 -9 24 -11 12 -38 126 -54 230 -14 84 -15 255 -3 359 4 33 18 100 32 150
13 49 26 98 29 109 11 44 114 255 135 276 3 3 19 25 35 50 69 103 217 249 329
325 81 54 247 142 282 150 11 2 39 11 64 20 99 37 278 62 420 59 74 -1 145 -4
156 -7z"/>
<path d="M3548 5984 c-2 -2 -20 -5 -41 -8 -20 -2 -44 -7 -54 -10 -10 -3 -29
-7 -43 -10 -51 -8 -115 -28 -129 -39 -8 -7 -16 -11 -18 -9 -24 18 -287 -126
-376 -207 -113 -102 -164 -164 -231 -275 -58 -95 -118 -232 -130 -296 -1 -3
-4 -9 -8 -15 -6 -10 -20 -78 -35 -165 -10 -59 -9 -311 1 -375 50 -317 202
-581 447 -773 37 -29 69 -52 72 -52 4 0 23 -12 44 -26 21 -14 51 -31 68 -38
16 -8 48 -22 70 -32 22 -10 45 -19 50 -20 6 -2 30 -11 55 -20 46 -17 99 -32
135 -39 11 -2 46 -9 78 -15 32 -6 81 -13 110 -16 29 -3 61 -6 72 -8 37 -4 35
4 -15 66 -99 123 -184 330 -205 498 -3 25 -8 58 -11 73 -7 31 -7 255 0 302 2
17 7 55 11 85 3 30 9 58 12 63 3 4 7 23 10 40 3 18 12 52 20 77 9 25 17 50 18
55 5 23 34 94 46 115 5 8 12 22 15 30 87 222 372 525 581 621 88 40 133 58
133 54 0 -3 12 0 28 6 34 13 84 21 144 23 27 0 48 5 48 9 0 8 -22 29 -98 95
-111 95 -317 190 -472 218 -8 2 -28 6 -45 9 -33 7 -351 15 -357 9z"/>
<path d="M4360 5389 c-61 -13 -74 -17 -115 -35 -113 -52 -248 -171 -339 -299
-44 -61 -150 -255 -140 -255 2 0 -3 -14 -11 -30 -21 -41 -53 -145 -72 -238
-17 -82 -24 -344 -11 -417 35 -193 117 -330 246 -409 23 -14 42 -23 42 -20 0
4 6 1 13 -5 13 -10 66 -22 116 -25 37 -3 115 10 171 28 141 45 322 193 426
348 83 125 184 353 184 419 0 10 5 21 10 24 6 4 9 9 6 13 -2 4 2 39 9 78 12
69 12 270 1 329 -15 74 -30 131 -38 140 -4 5 -8 16 -8 25 0 20 -38 94 -78 152
-53 76 -159 155 -237 175 -33 9 -138 10 -175 2z"/>
</g>
</svg>
